<?xml version="1.0"?>
<svg xmlns="http://www.w3.org/2000/svg" viewBox="0 0 64 64" width="512" height="512"><g id="Gear-3" data-name="Gear"><path d="M53,32V24l-6.643-.83a18.861,18.861,0,0,0-1.96-4.736l4.109-5.283L42.849,7.494,37.566,11.6a18.861,18.861,0,0,0-4.736-1.96L32,3H24l-.83,6.643a18.861,18.861,0,0,0-4.736,1.96L13.151,7.494,7.494,13.151,11.6,18.434a18.861,18.861,0,0,0-1.96,4.736L3,24v8l6.643.83a18.861,18.861,0,0,0,1.96,4.736L7.494,42.849l5.657,5.657L18.434,44.4a18.861,18.861,0,0,0,4.736,1.96L24,53h8l.83-6.643a18.861,18.861,0,0,0,4.736-1.96l5.283,4.109,5.657-5.657L44.4,37.566a18.861,18.861,0,0,0,1.96-4.736Z" style="fill:#00ccb3"/><circle cx="28" cy="28" r="10" style="fill:#ffd422"/><path d="M54.67,46.62A11.122,11.122,0,0,1,53.4,49.7l2.62,3.49-2.83,2.83L49.7,53.4a11.122,11.122,0,0,1-3.08,1.27L46,59H42l-.62-4.33A11.122,11.122,0,0,1,38.3,53.4l-3.49,2.62-2.83-2.83L34.6,49.7a11.122,11.122,0,0,1-1.27-3.08L29,46V42l4.33-.62A11.122,11.122,0,0,1,34.6,38.3l-2.62-3.49,2.83-2.83L38.3,34.6a11.122,11.122,0,0,1,3.08-1.27L42,29h4l.62,4.33A11.122,11.122,0,0,1,49.7,34.6l3.49-2.62,2.83,2.83L53.4,38.3a11.122,11.122,0,0,1,1.27,3.08L59,42v4Z" style="fill:#ffa733"/><circle cx="44" cy="44" r="6" style="fill:#ff6243"/><rect x="43" y="33" width="2" height="2" style="fill:#ee8700"/><rect x="35.929" y="35.929" width="2" height="2" transform="translate(-15.296 36.929) rotate(-45)" style="fill:#ee8700"/><rect x="33" y="43" width="2" height="2" style="fill:#ee8700"/><rect x="35.929" y="50.071" width="2" height="2" transform="translate(-25.296 41.071) rotate(-45)" style="fill:#ee8700"/><rect x="43" y="53" width="2" height="2" style="fill:#ee8700"/><rect x="50.071" y="50.071" width="2" height="2" transform="translate(-21.154 51.071) rotate(-45)" style="fill:#ee8700"/><rect x="53" y="43" width="2" height="2" style="fill:#ee8700"/><rect x="50.071" y="35.929" width="2" height="2" transform="translate(-11.154 46.929) rotate(-45)" style="fill:#ee8700"/></g></svg>
